<svg version="1.1" id="Layer_1" xmlns="http://www.w3.org/2000/svg" xmlns:xlink="http://www.w3.org/1999/xlink" x="0px" y="0px"
	 width="100%" viewBox="0 0 200 200" enable-background="new 0 0 200 200" xml:space="preserve">
<path fill="#41B883" opacity="1.000000" stroke="none" 
	d="
M1.000000,187.000000 
	C1.000000,129.645767 1.000000,72.291542 1.468657,14.468653 
	C14.987165,14.056417 28.037018,14.112845 41.165813,14.496845 
	C60.961632,48.918293 80.678505,83.012169 100.798454,117.803032 
	C102.194305,115.708534 103.061478,114.546524 103.784676,113.300926 
	C112.484100,98.317520 121.190826,83.338226 129.838516,68.324951 
	C140.226654,50.290058 150.559784,32.223469 161.386230,14.102011 
	C174.903824,14.022281 187.951904,14.011141 201.000000,14.000000 
	C201.000000,71.354225 201.000000,128.708450 200.531342,186.531342 
	C133.708450,187.000000 67.354225,187.000000 1.000000,187.000000 
z"/>
<path fill="#FFFFFF" opacity="1.000000" stroke="none" 
	d="
M1.000000,187.474121 
	C67.354225,187.000000 133.708450,187.000000 200.531342,187.000000 
	C201.000000,191.657471 201.000000,196.314941 201.000000,200.966858 
	C134.333328,200.961304 67.666649,200.961304 1.000000,200.961304 
	C1.000000,196.597839 1.000000,192.273041 1.000000,187.474121 
z"/>
<path fill="#FFFFFF" opacity="1.000000" stroke="none" 
	d="
M201.000000,13.523338 
	C187.951904,14.011141 174.903824,14.022281 160.928894,14.027371 
	C148.005280,14.068196 136.008484,14.115071 123.547371,14.092808 
	C108.051476,14.069764 93.019905,14.115856 77.525269,14.090384 
	C65.070412,14.068971 53.078640,14.119122 41.086868,14.169272 
	C28.037018,14.112845 14.987165,14.056417 1.468657,13.999995 
	C1.000000,9.675378 1.000000,5.350756 1.000003,1.030768 
	C67.666679,1.035402 134.333344,1.035402 201.000000,1.035402 
	C201.000000,5.062761 201.000000,9.054719 201.000000,13.523338 
z"/>
<path fill="#35495E" opacity="1.000000" stroke="none" 
	d="
M124.011703,14.161945 
	C136.008484,14.115071 148.005280,14.068196 160.459412,14.095963 
	C150.559784,32.223469 140.226654,50.290058 129.838516,68.324951 
	C121.190826,83.338226 112.484100,98.317520 103.784676,113.300926 
	C103.061478,114.546524 102.194305,115.708534 100.798454,117.803032 
	C80.678505,83.012169 60.961632,48.918293 41.165813,14.496845 
	C53.078640,14.119122 65.070412,14.068971 77.610466,14.420483 
	C85.635201,27.766403 93.111649,40.710659 101.078781,54.504440 
	C109.136459,40.329754 116.574081,27.245850 124.011703,14.161945 
z"/>
<path fill="#3C7971" opacity="1.000000" stroke="none" 
	d="
M123.547371,14.092808 
	C116.574081,27.245850 109.136459,40.329754 101.078781,54.504440 
	C93.111649,40.710659 85.635201,27.766403 78.073547,14.492047 
	C93.019905,14.115856 108.051476,14.069764 123.547371,14.092808 
z"/>
</svg>